<?xml version="1.0" encoding="utf-8"?>
<!-- Generator: Adobe Illustrator 22.1.0, SVG Export Plug-In . SVG Version: 6.00 Build 0)  -->
<svg version="1.1" id="Layer_1" xmlns="http://www.w3.org/2000/svg" xmlns:xlink="http://www.w3.org/1999/xlink" x="0px" y="0px"
	 viewBox="0 0 45.4 45.4" style="enable-background:new 0 0 45.4 45.4;" xml:space="preserve">
<style type="text/css">
	.st0{fill:#FFFFFF;}
</style>
<g>
	<path class="st0" d="M22.7,11.6c-9.4,0-16.9,7.5-16.9,16.9c0,9.4,7.5,16.9,16.9,16.9c9.4,0,16.9-7.5,16.9-16.9
		C39.6,19.1,32.1,11.6,22.7,11.6z M22.7,43.4c-8.3,0-14.9-6.6-14.9-14.9c0-8.3,6.6-14.9,14.9-14.9c8.3,0,14.9,6.6,14.9,14.9
		C37.6,36.8,31,43.4,22.7,43.4z"/>
	<path class="st0" d="M30.2,18c-5.2-3.7-12.1-3.2-16.7,1.4c-4.5,4.5-5,11.5-1.4,16.5c0.4,0.5,1.1,0.6,1.5,0.1l16.7-16.6
		C30.8,19.1,30.7,18.4,30.2,18z M13.1,33.8c-2.4-4.2-1.7-9.5,1.8-13c3.6-3.6,8.8-4.3,13.1-1.8L13.1,33.8z"/>
	<path class="st0" d="M33.2,21c-0.4-0.5-1.1-0.6-1.5-0.1L15,37.4c-0.4,0.4-0.4,1.2,0.1,1.5c5.2,3.7,12.1,3.2,16.7-1.4
		C36.3,33.1,36.8,26.1,33.2,21z M30.4,36.2c-3.6,3.6-8.8,4.3-13.1,1.8l14.9-14.8C34.6,27.4,33.9,32.7,30.4,36.2z"/>
</g>
</svg>
