<?xml version="1.0" encoding="utf-8"?>
<!-- Generator: Adobe Illustrator 22.1.0, SVG Export Plug-In . SVG Version: 6.00 Build 0)  -->
<svg version="1.1" id="Layer_1" xmlns="http://www.w3.org/2000/svg" xmlns:xlink="http://www.w3.org/1999/xlink" x="0px" y="0px"
	 viewBox="0 0 45.4 45.4" style="enable-background:new 0 0 45.4 45.4;" xml:space="preserve">
<style type="text/css">
	.st0{fill:#FFFFFF;}
</style>
<g>
	<path class="st0" d="M8.2,37.2L8.2,37.2H1.9c-0.4,0-0.8,0.4-0.8,0.8l0,0v6.3c0,0.4,0.4,0.8,0.8,0.8l0,0h6.3c0.4,0,0.8-0.4,0.8-0.8
		l0,0V38C9,37.5,8.6,37.2,8.2,37.2z M7.4,43.4H2.7v-4.7h4.7C7.4,38.7,7.4,43.4,7.4,43.4z"/>
	<path class="st0" d="M20.2,24L20.2,24h-6.3c-0.4,0-0.8,0.4-0.8,0.8l0,0v6.3c0,0.4,0.4,0.8,0.8,0.8l0,0h6.3c0.4,0,0.8-0.4,0.8-0.8
		l0,0v-6.3C21,24.3,20.6,24,20.2,24z M19.4,30.3h-4.7v-4.7h4.7V30.3z"/>
	<path class="st0" d="M20.2,35L20.2,35h-6.3c-0.4,0-0.8,0.4-0.8,0.8l0,0v8.6c0,0.4,0.4,0.8,0.8,0.8l0,0h6.3c0.4,0,0.8-0.4,0.8-0.8
		l0,0v-8.6C21,35.3,20.6,35,20.2,35z M19.4,43.6h-4.7v-7h4.7V43.6z"/>
	<path class="st0" d="M32.2,32L32.2,32h-6.3c-0.4,0-0.8,0.4-0.8,0.8l0,0v11.8c0,0.4,0.4,0.8,0.8,0.8l0,0h6.3c0.4,0,0.8-0.4,0.8-0.8
		l0,0V32.8C33,32.3,32.6,32,32.2,32z M31.4,43.7h-4.7V33.6h4.7C31.4,33.6,31.4,43.7,31.4,43.7z"/>
	<path class="st0" d="M32.2,16L32.2,16h-6.3c-0.4,0-0.8,0.4-0.8,0.8l0,0v11.7c0,0.4,0.4,0.8,0.8,0.8l0,0h6.3c0.4,0,0.8-0.4,0.8-0.8
		l0,0V16.8C33,16.3,32.6,16,32.2,16z M31.4,27.7h-4.7V17.6h4.7C31.4,17.6,31.4,27.7,31.4,27.7z"/>
	<path class="st0" d="M43.4,24.6L43.4,24.6h-6.3c-0.4,0-0.8,0.4-0.8,0.8l0,0v18.8c0,0.4,0.4,0.8,0.8,0.8l0,0h6.3
		c0.4,0,0.8-0.4,0.8-0.8l0,0V25.4C44.2,25,43.9,24.6,43.4,24.6z M42.7,43.4H38V26.2h4.7V43.4z"/>
</g>
</svg>
