<?xml version="1.0" encoding="utf-8"?>
<!-- Generator: Adobe Illustrator 22.1.0, SVG Export Plug-In . SVG Version: 6.00 Build 0)  -->
<svg version="1.1" id="Layer_1" xmlns="http://www.w3.org/2000/svg" xmlns:xlink="http://www.w3.org/1999/xlink" x="0px" y="0px"
	 viewBox="0 0 45.4 29.5" style="enable-background:new 0 0 45.4 29.5;" xml:space="preserve">
<style type="text/css">
	.st0{fill:#FFFFFF;}
</style>
<g>
	<path class="st0" d="M8.2,21.3L8.2,21.3H1.9c-0.4,0-0.8,0.4-0.8,0.8l0,0v6.3c0,0.4,0.4,0.8,0.8,0.8l0,0h6.3c0.4,0,0.8-0.4,0.8-0.8
		l0,0v-6.3C9,21.6,8.6,21.3,8.2,21.3z M7.4,27.5H2.7v-4.7h4.7V27.5z"/>
	<path class="st0" d="M20.2,8.1L20.2,8.1h-6.3c-0.4,0-0.8,0.4-0.8,0.8l0,0v6.3c0,0.4,0.4,0.8,0.8,0.8l0,0h6.3c0.4,0,0.8-0.4,0.8-0.8
		l0,0V8.9C21,8.4,20.6,8.1,20.2,8.1z M19.4,14.4h-4.7V9.7h4.7V14.4z"/>
	<path class="st0" d="M20.2,19.1L20.2,19.1h-6.3c-0.4,0-0.8,0.4-0.8,0.8l0,0v8.6c0,0.4,0.4,0.8,0.8,0.8l0,0h6.3
		c0.4,0,0.8-0.4,0.8-0.8l0,0v-8.6C21,19.4,20.6,19.1,20.2,19.1z M19.4,27.7h-4.7v-7h4.7V27.7z"/>
	<path class="st0" d="M32.2,16.1L32.2,16.1h-6.3c-0.4,0-0.8,0.4-0.8,0.8l0,0v11.8c0,0.4,0.4,0.8,0.8,0.8l0,0h6.3
		c0.4,0,0.8-0.4,0.8-0.8l0,0V16.9C33,16.4,32.6,16.1,32.2,16.1z M31.4,27.8h-4.7V17.7h4.7V27.8z"/>
	<path class="st0" d="M32.2,0.1L32.2,0.1h-6.3c-0.4,0-0.8,0.4-0.8,0.8l0,0v11.7c0,0.4,0.4,0.8,0.8,0.8l0,0h6.3
		c0.4,0,0.8-0.4,0.8-0.8l0,0V0.9C33,0.4,32.6,0.1,32.2,0.1z M31.4,11.8h-4.7V1.7h4.7V11.8z"/>
	<path class="st0" d="M43.4,8.7L43.4,8.7h-6.3c-0.4,0-0.8,0.4-0.8,0.8l0,0v18.8c0,0.4,0.4,0.8,0.8,0.8l0,0h6.3
		c0.4,0,0.8-0.4,0.8-0.8l0,0V9.5C44.2,9.1,43.9,8.7,43.4,8.7z M42.7,27.5H38V10.3h4.7V27.5z"/>
</g>
</svg>
