<?xml version="1.0" encoding="utf-8"?>
<!-- Generator: Adobe Illustrator 22.1.0, SVG Export Plug-In . SVG Version: 6.00 Build 0)  -->
<svg version="1.1" id="Layer_1" xmlns="http://www.w3.org/2000/svg" xmlns:xlink="http://www.w3.org/1999/xlink" x="0px" y="0px"
	 viewBox="0 0 45.4 45.4" style="enable-background:new 0 0 45.4 45.4;" xml:space="preserve">
<style type="text/css">
	.st0{fill:#FFFFFF;}
</style>
<g>
	<path class="st0" d="M32.8,18.6c0,1.2-0.8,1.9-1.5,2.4c-0.2,0.2-0.7,0.6-0.7,0.7c0,0.5-0.4,0.9-0.9,0.9c0,0,0,0,0,0
		c-0.5,0-0.9-0.4-0.9-0.9c0-1,0.7-1.6,1.3-2.2c0.5-0.4,0.8-0.7,0.8-0.9c0-0.5-0.4-0.9-0.9-0.9c-0.5,0-0.9,0.4-0.9,0.9
		c0,0.5-0.4,1-0.9,1c-0.5,0-0.9-0.4-0.9-1c0-1.6,1.3-2.8,2.8-2.8C31.5,15.8,32.8,17,32.8,18.6z M29.7,23.5c-0.5,0-0.9,0.4-0.9,1v0
		c0,0.5,0.4,0.9,0.9,0.9s0.9-0.4,0.9-1C30.7,23.9,30.2,23.5,29.7,23.5z M10.7,30.1c-0.5,0-0.9,0.4-0.9,1c0,0.5,0.4,1,0.9,1h0.1
		c0.5,0,0.9-0.4,0.9-1C11.8,30.6,11.3,30.1,10.7,30.1L10.7,30.1z M14,30.1c-0.5,0-0.9,0.4-0.9,1c0,0.5,0.4,1,0.9,1h0.1
		c0.5,0,0.9-0.4,0.9-1C15,30.6,14.6,30.1,14,30.1L14,30.1z M41.7,14.9v10.7c0,2.5-2,4.6-4.5,4.6H24.9c-0.2,0-0.4,0-0.6,0
		c-0.2,0-0.4,0-0.4,0c-0.1,0.1-0.3,0.2-0.5,0.4c-0.1,0.1-0.2,0.1-0.2,0.2l-3.5,3.2c-0.3,0.3-0.7,0.3-1,0.2c-0.3-0.2-0.6-0.5-0.6-0.9
		V23.3H8.3c-1.5,0-2.7,1.2-2.7,2.7v10.7c0,1.5,1.2,2.7,2.7,2.7h13.6c0.2,0,0.5,0.1,0.6,0.3l2.8,2.6v-9.1c0-0.5,0.4-1,0.9-1
		c0.5,0,0.9,0.4,0.9,1v11.2c0,0.4-0.2,0.7-0.6,0.9c-0.1,0.1-0.2,0.1-0.4,0.1c-0.2,0-0.5-0.1-0.6-0.3l-4.1-3.8H8.3
		c-2.5,0-4.6-2-4.6-4.6V26c0-2.5,2.1-4.6,4.6-4.6h9.9v-6.4c0-2.5,2.1-4.6,4.6-4.6h14.4C39.7,10.4,41.7,12.4,41.7,14.9z M39.8,14.9
		c0-1.5-1.2-2.7-2.6-2.7H22.7c-1.5,0-2.7,1.2-2.7,2.7v7.4v8.9l1.9-1.7c0.1-0.1,0.2-0.2,0.3-0.2c0.9-0.8,1.1-0.9,2.2-0.9
		c0.2,0,0.3,0,0.6,0h12.2c1.5,0,2.6-1.2,2.6-2.7V14.9z"/>
</g>
</svg>
