<?xml version="1.0" encoding="utf-8"?>
<!-- Generator: Adobe Illustrator 22.1.0, SVG Export Plug-In . SVG Version: 6.00 Build 0)  -->
<svg version="1.1" id="Layer_1" xmlns="http://www.w3.org/2000/svg" xmlns:xlink="http://www.w3.org/1999/xlink" x="0px" y="0px"
	 viewBox="0 0 45.4 45.4" style="enable-background:new 0 0 45.4 45.4;" xml:space="preserve">
<style type="text/css">
	.st0{fill:url(#SVGID_1_);}
</style>
<g>
	
		<linearGradient id="SVGID_1_" gradientUnits="userSpaceOnUse" x1="11.4593" y1="13.1221" x2="35.1772" y2="13.1221" gradientTransform="matrix(1 0 0 -1 0 45.9764)">
		<stop  offset="0" style="stop-color:#F4AC26"/>
		<stop  offset="1" style="stop-color:#FDCB0C"/>
	</linearGradient>
	<path class="st0" d="M20.8,41.2h-1.6l-0.4-0.4l14.3-14.4c1.4-1.4,2.1-3.2,2.1-5.1c0-0.5-0.4-1-1-1h-0.1c-1.9,0-3.8,0.8-5.1,2.1
		L14.7,36.7l-0.4-0.4v-1.6c0-0.5-0.4-1-1-1s-1,0.4-1,1v2c0,0.3,0.1,0.5,0.3,0.7l2.1,2.1l-2,2c-0.2,0-0.3-0.1-0.5-0.1
		c-1.1,0-2,0.9-2,2c0,1.1,0.9,2,2,2s2-0.9,2-2c0-0.2,0-0.3-0.1-0.5l2-2l2,2c0.2,0.2,0.4,0.3,0.7,0.3h2c0.5,0,1-0.4,1-1
		C21.7,41.7,21.3,41.2,20.8,41.2z M30.4,23.9c0.8-0.8,1.7-1.3,2.8-1.5c-0.2,1-0.7,1.9-1.4,2.7L17.4,39.5l-1.3-1.3L30.4,23.9z
		 M12.3,26.4c-1.4-1.4-2.1-3.2-2.1-5.1v0c0-0.5,0.4-1,1-1h0.1c1.9,0,3.8,0.8,5.1,2.1l4.4,4.4c0.4,0.4,0.4,1,0,1.4
		c-0.4,0.4-1,0.4-1.4,0L15,23.9c-0.8-0.8-1.7-1.3-2.8-1.5c0.2,1,0.7,1.9,1.4,2.7l4.4,4.5c0.4,0.4,0.4,1,0,1.4
		c-0.2,0.2-0.4,0.3-0.7,0.3c-0.3,0-0.5-0.1-0.7-0.3L12.3,26.4z M35.2,43.4c0,1.1-0.9,2-2,2c-1.1,0-2-0.9-2-2c0-0.2,0-0.3,0.1-0.5
		l-2-2l-2,2c-0.2,0.2-0.4,0.3-0.7,0.3h-1.9c-0.5,0-1-0.4-1-1c0-0.5,0.4-1,1-1h1.5l0.4-0.4l-2-2c-0.4-0.4-0.4-1,0-1.4
		c0.4-0.4,1-0.4,1.4,0l1.9,2l1.3-1.3l-2-2c-0.4-0.4-0.4-1,0-1.4c0.4-0.4,1-0.4,1.4,0l2,2l0.4-0.4v-1.6c0-0.5,0.4-1,1-1
		c0.5,0,1,0.4,1,1v2c0,0.3-0.1,0.5-0.3,0.7l-2.1,2.1l2,2c0.2,0,0.3-0.1,0.5-0.1C34.3,41.4,35.2,42.3,35.2,43.4z"/>
</g>
</svg>
