<?xml version="1.0" encoding="utf-8"?>
<!-- Generator: Adobe Illustrator 22.1.0, SVG Export Plug-In . SVG Version: 6.00 Build 0)  -->
<svg version="1.1" id="Layer_1" xmlns="http://www.w3.org/2000/svg" xmlns:xlink="http://www.w3.org/1999/xlink" x="0px" y="0px"
	 viewBox="0 0 45.4 45.4" style="enable-background:new 0 0 45.4 45.4;" xml:space="preserve">
<style type="text/css">
	.st0{fill:#FFFFFF;}
</style>
<g>
	<path class="st0" d="M29.2,30.2c-0.1-0.3-0.3-0.5-0.6-0.5L25,29.2l-1.6-3.3c-0.1-0.2-0.4-0.4-0.7-0.4c-0.3,0-0.5,0.2-0.7,0.4
		l-1.6,3.3l-3.7,0.5c-0.3,0-0.5,0.2-0.6,0.5c-0.1,0.3,0,0.6,0.2,0.7l2.7,2.6l-0.6,3.6c0,0.3,0.1,0.5,0.3,0.7
		c0.2,0.2,0.5,0.2,0.8,0.1l3.3-1.7l3.3,1.7c0.1,0.1,0.2,0.1,0.3,0.1c0.2,0,0.3,0,0.4-0.1c0.2-0.2,0.3-0.4,0.3-0.7l-0.6-3.6L29,31
		C29.2,30.8,29.3,30.5,29.2,30.2z M25.1,32.8c-0.2,0.2-0.2,0.4-0.2,0.6l0.4,2.6L23,34.8c-0.2-0.1-0.5-0.1-0.7,0L20,36l0.4-2.6
		c0-0.2,0-0.5-0.2-0.6L18.4,31l2.6-0.4c0.2,0,0.4-0.2,0.5-0.4l1.2-2.3l1.2,2.3c0.1,0.2,0.3,0.4,0.5,0.4L27,31L25.1,32.8z"/>
	<path class="st0" d="M10.5,26c3,0,5.7-1.8,6.8-4.8c0.1-0.4-0.1-0.8-0.4-0.9c-1.8-0.6-3.7-0.5-5.5,0.3c0.4-0.6,0.9-1.1,1.4-1.6
		c0.3-0.3,0.3-0.7,0-1c-0.3-0.3-0.7-0.3-1,0c-0.4,0.4-0.7,0.8-1.1,1.2c-0.1-2.2-1.1-4.2-3-5.6c-0.3-0.2-0.8-0.2-1,0.2
		c-1.1,1.6-1.6,3.5-1.2,5.4c0.3,1.7,1.2,3.3,2.6,4.4c-0.2,0.6-0.4,1.1-0.6,1.7c-0.1-0.3-0.3-0.6-0.5-0.9c-1-1.6-2.6-2.7-4.5-3.2
		c-0.2,0-0.4,0-0.5,0.1c-0.2,0.1-0.3,0.3-0.3,0.5c-0.8,3.7,1.4,7.4,5,8.5c0,0.8,0,1.5,0.1,2.3c-0.2-0.1-0.3-0.3-0.5-0.4
		c-1.5-1.1-3.4-1.6-5.3-1.3c-0.4,0.1-0.7,0.4-0.6,0.8C0.5,33.3,1.5,35,3,36.1c1.2,0.9,2.7,1.4,4.2,1.4c0.2,0,0.5,0,0.7,0
		c0.3,0.7,0.6,1.4,1,2c-2.2-0.7-4.8-0.3-6.8,1.3c-0.3,0.3-0.4,0.7-0.1,1c1.2,1.5,2.9,2.4,4.9,2.6c0.2,0,0.5,0,0.7,0
		c1.5,0,2.9-0.5,4.1-1.3c0.8,0.8,1.7,1.5,2.7,2.1c0.1,0.1,0.3,0.1,0.4,0.1c0.2,0,0.5-0.1,0.6-0.3c0.2-0.3,0.1-0.8-0.2-1
		c-0.9-0.6-1.8-1.3-2.6-2.1c-1.8-1.7-3-3.8-3.8-6c3.5-1.3,5.4-5.1,4.3-8.7c-0.1-0.4-0.5-0.6-0.9-0.5c-1.8,0.5-3.4,1.8-4.3,3.4
		c0,0.1-0.1,0.1-0.1,0.2c0-1.5,0.2-3.1,0.7-4.6C9.3,25.9,9.9,26,10.5,26z M6.5,28.5c-2.4-0.9-3.9-3.3-3.7-5.8
		C4,23.1,5,23.9,5.7,24.9C6.3,26,6.6,27.2,6.5,28.5z M3.9,34.9c-1-0.8-1.8-1.8-2.1-3c0,0,0.1,0,0.1,0c2.5,0,4.8,1.7,5.5,4.1
		C6.1,36.1,4.9,35.7,3.9,34.9z M7.2,42.9c-1.3-0.1-2.4-0.7-3.3-1.5c2.2-1.3,5-1.1,6.9,0.7C9.7,42.8,8.4,43,7.2,42.9z M9.4,30.9
		c0.6-1.1,1.5-2,2.7-2.5c0.4,2.5-1,5-3.3,6.1C8.5,33.3,8.8,32,9.4,30.9z M11.9,21.9c1.1-0.5,2.4-0.7,3.6-0.4c-1.2,2.3-3.8,3.5-6.3,3
		C9.9,23.3,10.8,22.5,11.9,21.9z M6.9,18.8c-0.2-1.2,0-2.5,0.6-3.6c1.9,1.8,2.3,4.6,1.2,6.8C7.7,21.1,7.1,20,6.9,18.8z"/>
	<path class="st0" d="M38.1,37.5c1.5,0,3-0.5,4.2-1.4c1.5-1.1,2.6-2.8,2.9-4.7c0.1-0.4-0.2-0.8-0.6-0.8c-2.2-0.3-4.3,0.4-5.9,1.7
		c0.1-0.8,0.1-1.5,0.1-2.3c1.7-0.5,3.1-1.6,4.1-3.1c1-1.6,1.4-3.5,0.9-5.4c-0.1-0.4-0.5-0.6-0.9-0.5c-1.9,0.4-3.5,1.5-4.5,3.2
		c-0.2,0.3-0.4,0.6-0.5,0.9c-0.2-0.6-0.4-1.1-0.6-1.7c2.9-2.4,3.6-6.6,1.3-9.7c-0.1-0.2-0.3-0.3-0.5-0.3c-0.2,0-0.4,0-0.5,0.1
		c-1.6,1.1-2.6,2.8-2.9,4.7c-0.1,0.3-0.1,0.6-0.1,0.9c-0.3-0.4-0.7-0.8-1.1-1.2c-0.3-0.3-0.7-0.3-1,0c-0.3,0.3-0.3,0.7,0,1
		c0.5,0.5,1,1.1,1.4,1.6c-1.7-0.8-3.7-0.9-5.5-0.3c-0.4,0.1-0.6,0.5-0.4,0.9c1,2.9,3.8,4.8,6.8,4.8c0.6,0,1.2-0.1,1.8-0.2
		c0.4,1.5,0.7,3,0.7,4.6c-0.9-1.7-2.4-3-4.4-3.6c-0.4-0.1-0.8,0.1-0.9,0.5c-0.5,1.8-0.3,3.8,0.6,5.5c0.8,1.5,2.1,2.6,3.7,3.2
		c-0.8,2.2-2.1,4.2-3.8,6c-0.8,0.8-1.6,1.5-2.6,2.1c-0.3,0.2-0.4,0.7-0.2,1c0.1,0.2,0.4,0.3,0.6,0.3c0.1,0,0.3,0,0.4-0.1
		c0.9-0.6,1.8-1.3,2.7-2.1c1.2,0.9,2.7,1.3,4.1,1.3c2.1,0,4.2-0.9,5.6-2.6c0.1-0.1,0.2-0.3,0.2-0.5c0-0.2-0.1-0.4-0.3-0.5
		c-1.5-1.2-3.4-1.8-5.3-1.6c-0.5,0.1-1,0.2-1.5,0.3c0.4-0.7,0.7-1.3,1-2C37.6,37.5,37.8,37.5,38.1,37.5z M42.5,22.6
		c0.1,1.2-0.2,2.5-0.9,3.5c-0.7,1.1-1.7,1.9-2.8,2.3C38.6,25.9,40.1,23.5,42.5,22.6z M43.6,31.9c-0.7,2.5-3,4.1-5.6,4.1
		C38.7,33.6,41,31.9,43.6,31.9z M29.8,21.5c1.2-0.3,2.5-0.1,3.6,0.4c1.1,0.5,2.1,1.4,2.6,2.5C33.5,25,31,23.7,29.8,21.5z M36.8,22
		c-0.6-1.1-0.8-2.4-0.6-3.6c0.2-1.2,0.8-2.4,1.7-3.2C39.1,17.4,38.6,20.2,36.8,22z M37.9,40.6c1.3-0.1,2.5,0.2,3.6,0.8
		c-1.9,1.7-4.7,2-6.9,0.7C35.5,41.3,36.7,40.7,37.9,40.6z M36.6,34.5c-1.1-0.5-2.1-1.4-2.7-2.5c-0.6-1.1-0.8-2.4-0.6-3.6
		C35.6,29.5,37,32,36.6,34.5z"/>
</g>
</svg>
