<?xml version="1.0" encoding="utf-8"?>
<!-- Generator: Adobe Illustrator 22.1.0, SVG Export Plug-In . SVG Version: 6.00 Build 0)  -->
<svg version="1.1" id="Layer_1" xmlns="http://www.w3.org/2000/svg" xmlns:xlink="http://www.w3.org/1999/xlink" x="0px" y="0px"
	 viewBox="0 0 45.4 45.4" style="enable-background:new 0 0 45.4 45.4;" xml:space="preserve">
<style type="text/css">
	.st0{fill:#FFFFFF;}
	.st1{fill:#FFFFFF;filter:url(#Adobe_OpacityMaskFilter);}
	.st2{mask:url(#path-1-outside-1_1_);fill:none;stroke:#4A4D50;stroke-width:0.4;}
</style>
<path class="st0" d="M36.5,32.7l-2.3-0.5v-0.9c1.3-0.8,2.1-2.2,2.1-3.8v-2.5c0-2.5-2-4.5-4.5-4.5c-1.3,0-2.5,0.6-3.4,1.5
	c-0.7-2.5-3-4.3-5.8-4.3h0c-2.7,0-5.1,1.8-5.8,4.4c-0.8-0.9-2-1.5-3.4-1.5c-2.5,0-4.5,2-4.5,4.5v2.5c0,1.6,0.8,3,2.1,3.8v0.9
	l-2.3,0.5c-2.2,0.5-3.7,2.4-3.7,4.6v4.6c0,0.4,0.3,0.7,0.7,0.7h5.5v2.1c0,0.4,0.3,0.7,0.7,0.7h7.5c0.4,0,0.7-0.3,0.7-0.7
	c0-0.4-0.3-0.7-0.7-0.7h-3.1v-3c0-0.4-0.3-0.7-0.7-0.7c-0.4,0-0.7,0.3-0.7,0.7v3h-2.4v-3.1c0-2.3,1.6-4.3,3.8-4.9l3.4-0.8l2.2,4.9
	c0.1,0.2,0.4,0.4,0.6,0.4h0c0.3,0,0.5-0.2,0.6-0.4l2.2-4.9l3.4,0.8c2.3,0.5,3.8,2.5,3.8,4.9v0.8c0,0.1-0.1,0.2-0.1,0.3
	c0,0.1,0,0.2,0.1,0.3V44h-2.4v-3c0-0.4-0.3-0.7-0.7-0.7c-0.4,0-0.7,0.3-0.7,0.7v3h-3.3c-0.4,0-0.7,0.3-0.7,0.7
	c0,0.4,0.3,0.7,0.7,0.7h7.8c0.4,0,0.7-0.3,0.7-0.7v-2.1h5.5c0.4,0,0.7-0.3,0.7-0.7v-4.6C40.2,35.1,38.7,33.2,36.5,32.7z M31.8,21.8
	c1.7,0,3.1,1.4,3.1,3.1v0.2v0.1h-2c-1.5,0-2.9-0.4-4.2-1.1C29.2,22.7,30.4,21.8,31.8,21.8z M28.7,27.3c0-0.1,0-1.8,0-1.8
	c1.3,0.7,2.8,1,4.3,1h2v0.9c0,1.7-1.4,3.1-3.1,3.1c-1.7,0-3.1-1.4-3.1-3.1V27.3z M18,23.6c0-2.6,2.1-4.6,4.6-4.6s4.6,2.1,4.6,4.6
	v0.1l-2.5-1.5c-0.3-0.2-0.7-0.1-0.9,0.2c-1,1.2-2.4,1.9-4,1.9H18V23.6z M10.4,25.1v-0.2c0-1.7,1.4-3.1,3.1-3.1c1.4,0,2.6,1,3,2.3
	c-1.3,0.7-2.7,1.1-4.2,1.1L10.4,25.1L10.4,25.1z M10.4,27.4v-0.9h2c1.5,0,3-0.3,4.3-1v2c0,1.7-1.4,3.1-3.1,3.1
	C11.8,30.6,10.4,29.2,10.4,27.4z M11.3,40.9v0.3h-2v-3c0-0.4-0.3-0.7-0.7-0.7c-0.4,0-0.7,0.3-0.7,0.7v3H6.5v-3.9
	c0-1.6,1.1-2.9,2.6-3.3l2.2-0.5l1.4,3.4C11.8,38,11.3,39.4,11.3,40.9z M13.5,35.2l-1-2.5c0,0,0,0,0,0v-0.9c0.3,0.1,0.7,0.1,1,0.1
	c0.4,0,0.7,0,1-0.1v0.8c0,0,0,0,0,0c0,0,0,0,0,0.1L13.5,35.2z M16.2,34.7c-0.4,0.1-0.8,0.2-1.2,0.4l0.7-1.6l2.2,0.5
	c0.2,0,0.3,0.1,0.5,0.2L16.2,34.7z M19.6,33.3c-0.4-0.3-0.9-0.5-1.4-0.6l-2.3-0.5v-0.9c0.6-0.4,1.1-0.8,1.4-1.4
	c0.5,1,1.3,1.9,2.3,2.4V33.3z M24.4,34.3l-1.7,3.9L21,34.3v-1.4c0.5,0.2,1.1,0.3,1.7,0.3c0.6,0,1.2-0.1,1.7-0.2V34.3z M22.7,31.8
	c-2.6,0-4.6-2.1-4.6-4.6v-1.6H20c1.7,0,3.4-0.7,4.6-1.9l2.7,1.6v2C27.2,29.8,25.2,31.8,22.7,31.8z M25.7,32.3L25.7,32.3
	c1-0.6,1.8-1.4,2.3-2.4c0.4,0.6,0.8,1,1.4,1.4v0.9l-2.3,0.5c-0.5,0.1-1,0.3-1.4,0.6V32.3z M29.1,34.7L27,34.2
	c0.2-0.1,0.3-0.1,0.5-0.2l2.2-0.5l0.7,1.6C29.9,35,29.5,34.8,29.1,34.7z M30.8,32.8C30.8,32.8,30.8,32.7,30.8,32.8
	C30.8,32.7,30.8,32.7,30.8,32.8l0-0.9c0.3,0.1,0.7,0.1,1,0.1c0.4,0,0.7,0,1-0.1v0.9c0,0,0,0,0,0l-1,2.5L30.8,32.8z M38.8,41.3h-1.4
	v-3c0-0.4-0.3-0.7-0.7-0.7c-0.4,0-0.7,0.3-0.7,0.7v3H34v-0.3c0-1.5-0.5-2.9-1.4-4l1.4-3.4l2.2,0.5c1.5,0.4,2.6,1.7,2.6,3.3V41.3z"/>
<defs>
	<filter id="Adobe_OpacityMaskFilter" filterUnits="userSpaceOnUse" x="5" y="17.4" width="35.4" height="28.2">
		<feColorMatrix  type="matrix" values="1 0 0 0 0  0 1 0 0 0  0 0 1 0 0  0 0 0 1 0"/>
	</filter>
</defs>
<mask maskUnits="userSpaceOnUse" x="5" y="17.4" width="35.4" height="28.2" id="path-1-outside-1_1_">
	<rect x="4.2" y="16.6" class="st1" width="37" height="29"/>
	<path d="M36.5,32.7l-2.3-0.5v-0.9c1.3-0.8,2.1-2.2,2.1-3.8v-2.5c0-2.5-2-4.5-4.5-4.5c-1.3,0-2.5,0.6-3.4,1.5
		c-0.7-2.5-3-4.3-5.8-4.3h0c-2.7,0-5.1,1.8-5.8,4.4c-0.8-0.9-2-1.5-3.4-1.5c-2.5,0-4.5,2-4.5,4.5v2.5c0,1.6,0.8,3,2.1,3.8v0.9
		l-2.3,0.5c-2.2,0.5-3.7,2.4-3.7,4.6v4.6c0,0.4,0.3,0.7,0.7,0.7h5.5v2.1c0,0.4,0.3,0.7,0.7,0.7h7.5c0.4,0,0.7-0.3,0.7-0.7
		c0-0.4-0.3-0.7-0.7-0.7h-3.1v-3c0-0.4-0.3-0.7-0.7-0.7c-0.4,0-0.7,0.3-0.7,0.7v3h-2.4v-3.1c0-2.3,1.6-4.3,3.8-4.9l3.4-0.8l2.2,4.9
		c0.1,0.2,0.4,0.4,0.6,0.4h0c0.3,0,0.5-0.2,0.6-0.4l2.2-4.9l3.4,0.8c2.3,0.5,3.8,2.5,3.8,4.9v0.8c0,0.1-0.1,0.2-0.1,0.3
		c0,0.1,0,0.2,0.1,0.3V44h-2.4v-3c0-0.4-0.3-0.7-0.7-0.7c-0.4,0-0.7,0.3-0.7,0.7v3h-3.3c-0.4,0-0.7,0.3-0.7,0.7
		c0,0.4,0.3,0.7,0.7,0.7h7.8c0.4,0,0.7-0.3,0.7-0.7v-2.1h5.5c0.4,0,0.7-0.3,0.7-0.7v-4.6C40.2,35.1,38.7,33.2,36.5,32.7z M31.8,21.8
		c1.7,0,3.1,1.4,3.1,3.1v0.2v0.1h-2c-1.5,0-2.9-0.4-4.2-1.1C29.2,22.7,30.4,21.8,31.8,21.8z M28.7,27.3c0-0.1,0-1.8,0-1.8
		c1.3,0.7,2.8,1,4.3,1h2v0.9c0,1.7-1.4,3.1-3.1,3.1c-1.7,0-3.1-1.4-3.1-3.1V27.3z M18,23.6c0-2.6,2.1-4.6,4.6-4.6s4.6,2.1,4.6,4.6
		v0.1l-2.5-1.5c-0.3-0.2-0.7-0.1-0.9,0.2c-1,1.2-2.4,1.9-4,1.9H18V23.6z M10.4,25.1v-0.2c0-1.7,1.4-3.1,3.1-3.1c1.4,0,2.6,1,3,2.3
		c-1.3,0.7-2.7,1.1-4.2,1.1L10.4,25.1L10.4,25.1z M10.4,27.4v-0.9h2c1.5,0,3-0.3,4.3-1v2c0,1.7-1.4,3.1-3.1,3.1
		C11.8,30.6,10.4,29.2,10.4,27.4z M11.3,40.9v0.3h-2v-3c0-0.4-0.3-0.7-0.7-0.7c-0.4,0-0.7,0.3-0.7,0.7v3H6.5v-3.9
		c0-1.6,1.1-2.9,2.6-3.3l2.2-0.5l1.4,3.4C11.8,38,11.3,39.4,11.3,40.9z M13.5,35.2l-1-2.5c0,0,0,0,0,0v-0.9c0.3,0.1,0.7,0.1,1,0.1
		c0.4,0,0.7,0,1-0.1v0.8c0,0,0,0,0,0c0,0,0,0,0,0.1L13.5,35.2z M16.2,34.7c-0.4,0.1-0.8,0.2-1.2,0.4l0.7-1.6l2.2,0.5
		c0.2,0,0.3,0.1,0.5,0.2L16.2,34.7z M19.6,33.3c-0.4-0.3-0.9-0.5-1.4-0.6l-2.3-0.5v-0.9c0.6-0.4,1.1-0.8,1.4-1.4
		c0.5,1,1.3,1.9,2.3,2.4V33.3z M24.4,34.3l-1.7,3.9L21,34.3v-1.4c0.5,0.2,1.1,0.3,1.7,0.3c0.6,0,1.2-0.1,1.7-0.2V34.3z M22.7,31.8
		c-2.6,0-4.6-2.1-4.6-4.6v-1.6H20c1.7,0,3.4-0.7,4.6-1.9l2.7,1.6v2C27.2,29.8,25.2,31.8,22.7,31.8z M25.7,32.3L25.7,32.3
		c1-0.6,1.8-1.4,2.3-2.4c0.4,0.6,0.8,1,1.4,1.4v0.9l-2.3,0.5c-0.5,0.1-1,0.3-1.4,0.6V32.3z M29.1,34.7L27,34.2
		c0.2-0.1,0.3-0.1,0.5-0.2l2.2-0.5l0.7,1.6C29.9,35,29.5,34.8,29.1,34.7z M30.8,32.8C30.8,32.8,30.8,32.7,30.8,32.8
		C30.8,32.7,30.8,32.7,30.8,32.8l0-0.9c0.3,0.1,0.7,0.1,1,0.1c0.4,0,0.7,0,1-0.1v0.9c0,0,0,0,0,0l-1,2.5L30.8,32.8z M38.8,41.3h-1.4
		v-3c0-0.4-0.3-0.7-0.7-0.7c-0.4,0-0.7,0.3-0.7,0.7v3H34v-0.3c0-1.5-0.5-2.9-1.4-4l1.4-3.4l2.2,0.5c1.5,0.4,2.6,1.7,2.6,3.3V41.3z"
		/>
</mask>
<path class="st2" d="M36.5,32.7l-2.3-0.5v-0.9c1.3-0.8,2.1-2.2,2.1-3.8v-2.5c0-2.5-2-4.5-4.5-4.5c-1.3,0-2.5,0.6-3.4,1.5
	c-0.7-2.5-3-4.3-5.8-4.3h0c-2.7,0-5.1,1.8-5.8,4.4c-0.8-0.9-2-1.5-3.4-1.5c-2.5,0-4.5,2-4.5,4.5v2.5c0,1.6,0.8,3,2.1,3.8v0.9
	l-2.3,0.5c-2.2,0.5-3.7,2.4-3.7,4.6v4.6c0,0.4,0.3,0.7,0.7,0.7h5.5v2.1c0,0.4,0.3,0.7,0.7,0.7h7.5c0.4,0,0.7-0.3,0.7-0.7
	c0-0.4-0.3-0.7-0.7-0.7h-3.1v-3c0-0.4-0.3-0.7-0.7-0.7c-0.4,0-0.7,0.3-0.7,0.7v3h-2.4v-3.1c0-2.3,1.6-4.3,3.8-4.9l3.4-0.8l2.2,4.9
	c0.1,0.2,0.4,0.4,0.6,0.4h0c0.3,0,0.5-0.2,0.6-0.4l2.2-4.9l3.4,0.8c2.3,0.5,3.8,2.5,3.8,4.9v0.8c0,0.1-0.1,0.2-0.1,0.3
	c0,0.1,0,0.2,0.1,0.3V44h-2.4v-3c0-0.4-0.3-0.7-0.7-0.7c-0.4,0-0.7,0.3-0.7,0.7v3h-3.3c-0.4,0-0.7,0.3-0.7,0.7
	c0,0.4,0.3,0.7,0.7,0.7h7.8c0.4,0,0.7-0.3,0.7-0.7v-2.1h5.5c0.4,0,0.7-0.3,0.7-0.7v-4.6C40.2,35.1,38.7,33.2,36.5,32.7z M31.8,21.8
	c1.7,0,3.1,1.4,3.1,3.1v0.2v0.1h-2c-1.5,0-2.9-0.4-4.2-1.1C29.2,22.7,30.4,21.8,31.8,21.8z M28.7,27.3c0-0.1,0-1.8,0-1.8
	c1.3,0.7,2.8,1,4.3,1h2v0.9c0,1.7-1.4,3.1-3.1,3.1c-1.7,0-3.1-1.4-3.1-3.1V27.3z M18,23.6c0-2.6,2.1-4.6,4.6-4.6s4.6,2.1,4.6,4.6
	v0.1l-2.5-1.5c-0.3-0.2-0.7-0.1-0.9,0.2c-1,1.2-2.4,1.9-4,1.9H18V23.6z M10.4,25.1v-0.2c0-1.7,1.4-3.1,3.1-3.1c1.4,0,2.6,1,3,2.3
	c-1.3,0.7-2.7,1.1-4.2,1.1L10.4,25.1L10.4,25.1z M10.4,27.4v-0.9h2c1.5,0,3-0.3,4.3-1v2c0,1.7-1.4,3.1-3.1,3.1
	C11.8,30.6,10.4,29.2,10.4,27.4z M11.3,40.9v0.3h-2v-3c0-0.4-0.3-0.7-0.7-0.7c-0.4,0-0.7,0.3-0.7,0.7v3H6.5v-3.9
	c0-1.6,1.1-2.9,2.6-3.3l2.2-0.5l1.4,3.4C11.8,38,11.3,39.4,11.3,40.9z M13.5,35.2l-1-2.5c0,0,0,0,0,0v-0.9c0.3,0.1,0.7,0.1,1,0.1
	c0.4,0,0.7,0,1-0.1v0.8c0,0,0,0,0,0c0,0,0,0,0,0.1L13.5,35.2z M16.2,34.7c-0.4,0.1-0.8,0.2-1.2,0.4l0.7-1.6l2.2,0.5
	c0.2,0,0.3,0.1,0.5,0.2L16.2,34.7z M19.6,33.3c-0.4-0.3-0.9-0.5-1.4-0.6l-2.3-0.5v-0.9c0.6-0.4,1.1-0.8,1.4-1.4
	c0.5,1,1.3,1.9,2.3,2.4V33.3z M24.4,34.3l-1.7,3.9L21,34.3v-1.4c0.5,0.2,1.1,0.3,1.7,0.3c0.6,0,1.2-0.1,1.7-0.2V34.3z M22.7,31.8
	c-2.6,0-4.6-2.1-4.6-4.6v-1.6H20c1.7,0,3.4-0.7,4.6-1.9l2.7,1.6v2C27.2,29.8,25.2,31.8,22.7,31.8z M25.7,32.3L25.7,32.3
	c1-0.6,1.8-1.4,2.3-2.4c0.4,0.6,0.8,1,1.4,1.4v0.9l-2.3,0.5c-0.5,0.1-1,0.3-1.4,0.6V32.3z M29.1,34.7L27,34.2
	c0.2-0.1,0.3-0.1,0.5-0.2l2.2-0.5l0.7,1.6C29.9,35,29.5,34.8,29.1,34.7z M30.8,32.8C30.8,32.8,30.8,32.7,30.8,32.8
	C30.8,32.7,30.8,32.7,30.8,32.8l0-0.9c0.3,0.1,0.7,0.1,1,0.1c0.4,0,0.7,0,1-0.1v0.9c0,0,0,0,0,0l-1,2.5L30.8,32.8z M38.8,41.3h-1.4
	v-3c0-0.4-0.3-0.7-0.7-0.7c-0.4,0-0.7,0.3-0.7,0.7v3H34v-0.3c0-1.5-0.5-2.9-1.4-4l1.4-3.4l2.2,0.5c1.5,0.4,2.6,1.7,2.6,3.3V41.3z"/>
</svg>
