<svg width="140" height="31" viewBox="0 0 140 31" fill="none" xmlns="http://www.w3.org/2000/svg">
<mask id="path-1-inside-1" fill="white">
<path d="M8.23529 0L0 15.5L8.23529 31H131.765L140 15.5L131.765 0H8.23529Z"/>
</mask>
<path d="M8.23529 0L0 15.5L8.23529 31H131.765L140 15.5L131.765 0H8.23529Z" fill="#1B1D21"/>
<path d="M0 15.5L-0.883094 15.0308L-1.13238 15.5L-0.883094 15.9692L0 15.5ZM8.23529 0V-1H7.63422L7.3522 -0.469196L8.23529 0ZM131.765 0L132.648 -0.469196L132.366 -1H131.765V0ZM131.765 31V32H132.366L132.648 31.4692L131.765 31ZM8.23529 31L7.3522 31.4692L7.63422 32H8.23529V31ZM140 15.5L140.883 15.9692L141.132 15.5L140.883 15.0308L140 15.5ZM0.883094 15.9692L9.11839 0.469196L7.3522 -0.469196L-0.883094 15.0308L0.883094 15.9692ZM8.23529 1H131.765V-1H8.23529V1ZM131.765 30H8.23529V32H131.765V30ZM9.11839 30.5308L0.883094 15.0308L-0.883094 15.9692L7.3522 31.4692L9.11839 30.5308ZM130.882 0.469196L139.117 15.9692L140.883 15.0308L132.648 -0.469196L130.882 0.469196ZM139.117 15.0308L130.882 30.5308L132.648 31.4692L140.883 15.9692L139.117 15.0308Z" fill="#2A2B31" mask="url(#path-1-inside-1)"/>
</svg>
